<?xml version="1.0" encoding="UTF-8"?>
<svg id="Layer_3" data-name="Layer 3" xmlns="http://www.w3.org/2000/svg" viewBox="0 0 394.51 192.91">
  <defs>
    <style>
      .cls-1 {
        stroke: #38479d;
        stroke-width: 5px;
      }

      .cls-1, .cls-2, .cls-3 {
        stroke-miterlimit: 10;
      }

      .cls-1, .cls-3 {
        fill: none;
      }

      .cls-2 {
        fill: #be1e2d;
        stroke: #be1e2d;
        stroke-width: 3px;
      }

      .cls-3 {
        stroke: #39499d;
        stroke-width: 7px;
      }

      .cls-4 {
        fill: #39499d;
        font-family: PlantagenetCherokee, 'Plantagenet Cherokee';
        font-size: 8px;
      }
    </style>
  </defs>
  <g>
    <path class="cls-1" d="M291.38,131.31c-4.07.14-5.74,3.3-6.34,4.87-1.68,4.4-.05,6.84,3.59,8.72,3.22,1.67,7.22-.1,8.13-4.24,1.5-6.87-1.87-9.47-5.37-9.35Z"/>
    <path class="cls-3" d="M295.78,119.5c.26,7.94,17.97-16.48,36.93-9.26,20.46,7.8,14.99,26.22-19.45,31.13-8.89,1.27,25.24,22.11,9.67,31.59-.39.24-.89.22-1.32.35-2.92.85-17.25,3.84-30.05-13.96-9.89-13.74,12.13,35.4-10.79,29.57-29.23-7.43,2.48-44.83-10.11-39.42-19.9,8.55-49.6,4.96-43.09-13.7,8.48-24.3,59.28-2.56,47.75-10.17-40.52-26.74-3.49-38.06-3.49-38.06,0,0,22.67-7.52,23.94,31.92Z"/>
  </g>
  <g>
    <path class="cls-2" d="M18.6,143.42c-.53,1.5-.81,2.75-.82,3.76-.01,1.01.21,1.88.67,2.62.46.73,1.12,1.38,1.99,1.94.87.56,1.92,1.11,3.17,1.65.31.11.48.31.53.6.05.29.01.59-.1.9-.09.26-.26.48-.49.64-.23.17-.5.19-.81.08-2.38-.85-4.38-1.66-6.01-2.44-1.63-.78-3.24-1.45-4.82-2.02-1.67-.6-3.35-1.1-5.04-1.5-1.69-.41-3.31-.88-4.85-1.43-.26-.09-.42-.28-.48-.54-.05-.27-.04-.54.03-.81.07-.27.22-.5.44-.7.22-.19.49-.26.81-.19,1.28.31,2.35.49,3.22.55.87.06,1.61-.07,2.22-.4.61-.33,1.14-.86,1.57-1.6.44-.74.89-1.77,1.36-3.09l8.77-24.62c.34-.97.67-1.94.97-2.93.3-.98.47-1.93.52-2.83.05-.9-.06-1.72-.31-2.46-.26-.74-.75-1.33-1.48-1.79-.45-.26-.92-.54-1.41-.84-.49-.3-.97-.55-1.44-.77-.26-.09-.42-.27-.48-.54-.05-.27-.03-.53.06-.8.09-.26.25-.48.46-.66.21-.17.45-.21.71-.12,1.5.53,2.81,1.08,3.96,1.63,1.14.56,2.5,1.12,4.09,1.68,2.66.9,4.87,1.6,6.65,2.11,1.78.51,3.46,1.05,5.04,1.61,1.76.63,3.42,1.43,4.98,2.41,1.56.98,2.83,2.15,3.81,3.51.98,1.36,1.6,2.91,1.88,4.65.27,1.73.04,3.66-.72,5.77-.88,2.46-2.09,4.34-3.64,5.62-1.55,1.28-3.35,2.13-5.4,2.54-2.06.41-4.31.44-6.76.08-2.45-.35-5.01-.96-7.69-1.81-.44-.16-.78-.2-1.03-.14-.24.06-.48.4-.7,1.02l-3.43,9.64ZM23.7,129.1c-.13.35-.1.61.06.77.17.16.51.33,1.04.52,2.16.77,4.02,1.25,5.59,1.43,1.57.19,2.93.05,4.09-.4,1.15-.46,2.14-1.23,2.95-2.33.81-1.1,1.55-2.57,2.21-4.42,1.24-3.48,1.47-6.16.71-8.04-.77-1.88-2.71-3.38-5.84-4.5-1.72-.61-2.93-.79-3.63-.55-.71.24-1.3,1.05-1.79,2.41l-5.39,15.11Z"/>
    <path class="cls-2" d="M71.11,168.73c-7.32-.43-12.94-2.84-16.84-7.23-3.91-4.39-5.62-10.72-5.13-18.97.21-3.54.98-6.77,2.32-9.69,1.34-2.92,3.11-5.39,5.31-7.41,2.2-2.02,4.78-3.54,7.74-4.56,2.96-1.02,6.19-1.43,9.69-1.22,3.4.2,6.49.95,9.27,2.26,2.78,1.31,5.13,3.07,7.06,5.29,1.93,2.22,3.38,4.84,4.35,7.87.97,3.03,1.35,6.36,1.13,10-.24,4.06-1.07,7.6-2.48,10.63-1.42,3.03-3.25,5.54-5.5,7.54-2.25,2-4.82,3.46-7.73,4.39-2.91.93-5.97,1.3-9.19,1.11ZM71.56,165.81c2.28.13,4.34-.35,6.16-1.46,1.82-1.11,3.39-2.62,4.72-4.53,1.33-1.91,2.38-4.14,3.17-6.69.78-2.55,1.25-5.23,1.42-8.02.16-2.7.07-5.38-.27-8.02s-1-5.01-2-7.1c-1-2.09-2.4-3.81-4.19-5.16-1.79-1.34-4.04-2.1-6.75-2.26-2.52-.15-4.74.35-6.65,1.51-1.92,1.15-3.52,2.71-4.8,4.67-1.28,1.96-2.28,4.22-2.99,6.77s-1.15,5.16-1.3,7.82c-.16,2.8-.09,5.52.22,8.15.31,2.64.97,4.98,1.97,7.03,1,2.05,2.41,3.73,4.23,5.06,1.82,1.32,4.17,2.07,7.06,2.24Z"/>
    <path class="cls-2" d="M104.38,131c-.32-.98-.66-1.92-1.03-2.83-.37-.91-.8-1.73-1.28-2.46-.48-.73-1.05-1.3-1.7-1.73-.65-.42-1.42-.62-2.29-.58-.53.03-1.08.08-1.64.17-.56.09-1.09.19-1.6.3-.27.09-.5.04-.71-.14-.21-.18-.35-.4-.44-.67-.09-.27-.1-.53-.04-.8.06-.27.22-.44.49-.53,1.51-.49,2.88-.89,4.11-1.19,1.23-.3,2.64-.71,4.24-1.23,2.65-.91,4.84-1.69,6.58-2.32,1.73-.64,3.4-1.22,5-1.74,1.78-.58,3.6-.94,5.47-1.08s3.63.03,5.29.52c1.66.49,3.14,1.36,4.46,2.6,1.31,1.24,2.32,2.93,3.01,5.06.55,1.69.77,3.24.66,4.65-.11,1.41-.46,2.7-1.06,3.88-.6,1.18-1.42,2.24-2.46,3.19-1.04.95-2.22,1.82-3.54,2.59-.28.19-.39.4-.31.62.06.18.27.31.64.38,2.42.34,4.4.95,5.94,1.83,1.54.88,2.82,1.88,3.86,3.02,1.03,1.14,1.91,2.36,2.63,3.67.72,1.31,1.45,2.58,2.2,3.82.55.95,1.16,1.57,1.83,1.87.66.3,1.26.36,1.79.19.53-.17.97-.56,1.32-1.17.34-.6.5-1.39.48-2.37-.03-.38.08-.67.31-.87.23-.2.48-.3.74-.32.27-.01.53.05.8.18s.41.32.44.56c.23,1.15.23,2.21,0,3.17-.23.96-.6,1.81-1.13,2.54-.52.73-1.18,1.37-1.96,1.89-.79.53-1.6.93-2.45,1.2-1.42.46-2.81.57-4.17.32-1.36-.25-2.42-.88-3.2-1.91-.51-.67-1.04-1.41-1.57-2.22-.53-.81-1.06-1.63-1.58-2.47-.52-.84-1.03-1.65-1.53-2.45-.5-.79-.95-1.49-1.35-2.1-1.72-2.58-3.42-4.29-5.09-5.12-1.67-.83-3.64-.88-5.9-.14-.76.25-1.35.61-1.78,1.1-.43.48-.5,1.19-.19,2.13l2.93,8.99c.49,1.51,1.04,2.67,1.65,3.48.61.81,1.3,1.37,2.09,1.68.79.31,1.67.43,2.66.35.98-.07,2.09-.26,3.32-.56.27-.09.52-.03.75.16.23.19.4.45.5.76.09.27.09.54,0,.81-.08.27-.28.46-.59.56-2.22.72-4.2,1.27-5.95,1.64-1.75.37-3.42.82-5.02,1.34-1.69.55-3.33,1.18-4.91,1.89-1.59.71-3.16,1.32-4.71,1.83-.27.09-.5.04-.71-.14-.21-.18-.36-.4-.47-.66-.11-.26-.14-.53-.08-.82.05-.29.23-.5.53-.65,1.2-.54,2.16-1.05,2.89-1.53.73-.48,1.23-1.04,1.52-1.67.28-.63.37-1.37.27-2.22-.11-.85-.37-1.94-.81-3.27l-8.13-24.98ZM114.23,136.56c.38,1.16.92,1.73,1.63,1.72.71,0,1.71-.22,3-.64,1.73-.56,3.13-1.2,4.2-1.92,1.07-.72,1.83-1.58,2.29-2.59s.63-2.17.52-3.49c-.11-1.31-.45-2.86-1.03-4.64-.55-1.69-1.17-3.07-1.86-4.15-.69-1.07-1.5-1.87-2.43-2.38-.93-.51-2-.74-3.21-.69-1.21.05-2.62.34-4.22.86-1.73.56-2.8,1.16-3.21,1.78-.41.63-.39,1.63.06,3l4.27,13.12Z"/>
    <path class="cls-2" d="M176.76,126.18c.91,1.24,1.68,2.17,2.31,2.78.63.61,1.27.96,1.95,1.05.67.09,1.43-.05,2.27-.41.84-.36,1.9-.92,3.19-1.69.25-.13.52-.14.81-.03.28.11.51.28.67.5s.25.48.26.77c0,.28-.12.52-.39.72-1.51,1.11-3,2.09-4.48,2.95-1.48.86-2.9,1.79-4.26,2.78-1.43,1.05-2.85,2.21-4.27,3.48s-2.74,2.36-3.98,3.28c-.23.17-.46.2-.72.09-.25-.1-.46-.27-.63-.5-.17-.23-.27-.48-.31-.77-.04-.29.04-.54.24-.74,1.08-.97,1.91-1.8,2.48-2.48.57-.68.92-1.36,1.04-2.02s-.01-1.4-.39-2.19c-.38-.79-1.03-1.81-1.94-3.05l-18.43-25.06c-1.02-1.39-2.02-2.01-2.97-1.86-.96.15-2.27.84-3.92,2.06-1.39,1.02-2.46,1.97-3.21,2.84-.75.87-1.22,1.79-1.4,2.77-.18.98-.11,2.06.23,3.27.33,1.2.9,2.67,1.71,4.4.13.25.12.49-.03.72-.15.23-.34.41-.56.54-.22.13-.46.21-.71.22-.25.01-.43-.06-.54-.21-.87-1.5-1.83-2.99-2.88-4.45-1.05-1.46-2.19-2.84-3.43-4.13-.3-.41-.25-.89.17-1.43.42-.54.94-1.04,1.58-1.51l30.2-22.21c.71-.52,1.36-.89,1.92-1.11.57-.21,1-.11,1.31.3.26.51.6,1.11,1.03,1.81.43.7.93,1.45,1.51,2.24.58.79,1.2,1.58,1.87,2.37.67.79,1.31,1.53,1.94,2.23.11.15.12.36.03.63-.09.27-.24.5-.45.68-.21.19-.45.32-.71.39-.26.08-.5.02-.7-.18-1.33-1.34-2.54-2.35-3.62-3.03-1.08-.68-2.13-1.07-3.16-1.16-1.02-.09-2.06.09-3.12.55-1.05.46-2.2,1.14-3.45,2.05-1.69,1.25-2.78,2.32-3.27,3.23-.49.91-.22,2.06.8,3.46l18.43,25.06Z"/>
    <path class="cls-2" d="M199.05,54.63c.28-.25.58-.46.9-.62.32-.17.67.03,1.04.57.8,1.1,1.82,2.29,3.04,3.58,1.22,1.29,2.37,2.45,3.44,3.5.13.14.15.32.07.55-.08.23-.21.44-.4.65-.19.21-.42.35-.69.44-.27.09-.5.06-.69-.08-1.46-1.13-2.66-1.97-3.59-2.52-.93-.54-1.79-.82-2.59-.83-.79,0-1.61.27-2.45.84-.84.57-1.88,1.38-3.13,2.45l-3.12,2.82c-.9.81-1.61,1.48-2.11,2-.51.52-.81,1.03-.92,1.54-.11.51,0,1.05.34,1.63.33.58.89,1.3,1.67,2.17l8.22,9.1c.44.49.8.71,1.08.68s.51-.13.68-.29c1.59-1.44,2.79-2.64,3.58-3.61.79-.97,1.26-1.85,1.4-2.63.14-.79.02-1.54-.35-2.28-.38-.73-.94-1.61-1.68-2.64-.15-.24-.19-.49-.11-.75.08-.26.22-.48.43-.67.21-.19.45-.31.71-.36.27-.05.49.02.68.23.5.55.93,1.07,1.29,1.53.36.47.71.93,1.07,1.39.36.47.73.95,1.12,1.45.39.5.86,1.06,1.43,1.68.94,1.04,1.84,1.94,2.72,2.69.87.76,1.85,1.74,2.95,2.95.16.17.19.38.09.63-.1.24-.25.45-.48.62-.22.17-.46.29-.71.36-.25.07-.49.02-.71-.16-1.01-.91-1.88-1.61-2.6-2.09-.72-.48-1.46-.68-2.23-.59-.77.09-1.66.5-2.69,1.2-1.03.71-2.34,1.78-3.93,3.22-.17.16-.29.37-.36.65-.06.28.08.61.42.99l7.89,8.74c1.06,1.18,2.01,2.04,2.85,2.58.83.54,1.66.8,2.49.77.83-.02,1.69-.3,2.6-.83.9-.53,1.97-1.26,3.21-2.19.24-.22.5-.28.78-.18.28.1.52.27.74.51.19.21.3.45.33.74.03.28-.07.53-.31.75-1.87,1.69-3.54,3.07-5,4.13-1.46,1.07-2.81,2.16-4.06,3.29-1.32,1.19-2.55,2.43-3.71,3.73-1.16,1.3-2.34,2.49-3.56,3.59-.21.19-.44.24-.7.16-.26-.08-.49-.21-.7-.41-.21-.19-.34-.43-.41-.72-.07-.28,0-.55.21-.81.88-.98,1.55-1.84,2.02-2.58.47-.74.7-1.45.71-2.15,0-.69-.22-1.41-.66-2.14-.44-.73-1.13-1.62-2.07-2.66l-17.65-19.55c-.69-.76-1.39-1.48-2.1-2.17s-1.43-1.26-2.17-1.72c-.74-.47-1.49-.76-2.26-.88-.77-.12-1.55.01-2.33.4-.48.24-.95.52-1.43.82-.48.31-.92.61-1.34.92-.21.19-.44.24-.7.16-.26-.08-.48-.22-.67-.43-.19-.21-.31-.45-.36-.71-.05-.27.03-.5.23-.68,1.18-1.06,2.27-1.98,3.27-2.76,1-.78,2.12-1.73,3.37-2.85l18.67-16.86Z"/>
    <path class="cls-2" d="M247.78,80.48c-6.87,2.57-12.98,2.63-18.33.19-5.35-2.44-9.47-7.53-12.36-15.28-1.24-3.33-1.84-6.59-1.79-9.8.05-3.21.67-6.18,1.87-8.92,1.2-2.74,2.94-5.17,5.24-7.3,2.3-2.13,5.09-3.81,8.37-5.03,3.19-1.19,6.33-1.75,9.4-1.68,3.07.08,5.93.74,8.6,1.99,2.66,1.25,5.05,3.06,7.15,5.44,2.11,2.38,3.8,5.27,5.08,8.69,1.42,3.81,2.1,7.38,2.02,10.72-.07,3.34-.73,6.38-1.98,9.12-1.25,2.74-3.01,5.12-5.3,7.14-2.29,2.02-4.94,3.6-7.96,4.73ZM247.01,77.63c2.14-.8,3.83-2.08,5.04-3.83,1.22-1.75,2.05-3.77,2.49-6.05.44-2.28.51-4.75.19-7.4-.32-2.65-.96-5.29-1.95-7.91-.95-2.54-2.11-4.95-3.48-7.23-1.37-2.28-2.94-4.17-4.7-5.69-1.76-1.51-3.73-2.52-5.92-3.03-2.18-.51-4.54-.29-7.08.66-2.36.88-4.19,2.24-5.48,4.06-1.29,1.83-2.12,3.9-2.51,6.21-.38,2.31-.38,4.78,0,7.4.38,2.62,1.04,5.18,1.97,7.68.98,2.63,2.15,5.08,3.5,7.37,1.35,2.29,2.9,4.16,4.65,5.63,1.75,1.47,3.72,2.44,5.91,2.92,2.2.48,4.65.21,7.36-.81Z"/>
    <path class="cls-2" d="M278.41,34.06c.04-1.45,0-2.69-.13-3.72-.13-1.03-.42-1.88-.87-2.55-.45-.67-1.1-1.19-1.95-1.57-.85-.38-2-.63-3.45-.77-.28,0-.49-.14-.62-.4-.13-.26-.19-.53-.18-.81s.09-.53.23-.76c.15-.23.36-.34.64-.33,1.49.05,3.2.17,5.11.37,1.91.2,3.71.32,5.39.38.98.03,1.9.04,2.77.02.86-.02,1.71-.04,2.53-.06.82-.02,1.65-.04,2.49-.06.84-.02,1.75-.02,2.73.01.28,0,.47.13.58.37.11.24.15.5.12.77s-.12.55-.27.8c-.15.25-.34.38-.57.37-1.45.05-2.62.21-3.52.49-.9.28-1.59.72-2.07,1.34-.49.62-.82,1.44-.99,2.46-.17,1.02-.28,2.33-.33,3.92l-.75,24.37c-.05,1.5-.02,2.75.09,3.75.11,1.01.34,1.86.69,2.54.35.69.85,1.23,1.49,1.62.64.39,1.45.75,2.42,1.06.65.16,1.38.29,2.2.38.81.09,1.67.16,2.55.18,1.12.04,2.17.02,3.16-.04.98-.06,1.73-.18,2.25-.35.94-.3,1.76-.62,2.45-.98.69-.35,1.28-.82,1.76-1.42.48-.59.89-1.34,1.23-2.24.33-.9.61-2.05.84-3.44.05-.28.22-.46.51-.55.28-.08.59-.12.91-.11.33.01.62.09.87.24.25.15.35.34.3.57-.3,1.95-.56,3.78-.8,5.48-.24,1.7-.36,3.44-.37,5.21,0,.14-.1.34-.3.59-.2.25-.64.37-1.34.34l-25.42-.79c-1.82-.06-3.57-.05-5.26.01-1.68.06-3.35.12-4.98.16-.33-.01-.57-.13-.72-.37-.16-.24-.23-.5-.22-.78,0-.28.1-.54.27-.8.17-.25.42-.4.75-.43,1.45-.14,2.63-.3,3.52-.49.89-.18,1.58-.49,2.06-.92.48-.43.82-1.07,1.01-1.93.19-.86.31-2.06.36-3.6l.85-27.45v-.07Z"/>
    <path class="cls-2" d="M330.97,39.75c.39-1.39.65-2.61.78-3.64.12-1.03.05-1.93-.22-2.68-.27-.76-.78-1.42-1.51-1.99-.74-.57-1.79-1.1-3.16-1.59-.27-.08-.44-.26-.5-.54-.07-.28-.06-.56.02-.83s.21-.5.41-.68c.2-.19.43-.24.7-.17,1.44.41,3.06.94,4.86,1.6,1.8.66,3.52,1.21,5.13,1.67.94.27,1.84.5,2.68.69.84.19,1.66.38,2.47.55.8.18,1.61.36,2.43.54.82.19,1.7.41,2.65.68.27.08.43.24.48.5.05.26.02.52-.08.78-.1.26-.25.5-.46.71-.21.21-.42.28-.64.22-1.42-.3-2.6-.43-3.53-.38-.94.05-1.72.31-2.34.79-.62.48-1.14,1.19-1.55,2.14-.41.95-.84,2.19-1.27,3.72l-7.49,26.43c-.42,1.48-.66,2.67-.71,3.55-.06.88.09,1.62.43,2.2.34.58.91,1.1,1.71,1.54.8.44,1.85.92,3.16,1.44.26.12.43.33.52.62.09.29.09.57.02.84-.08.27-.23.5-.45.67-.22.18-.49.23-.8.14-1.8-.51-3.49-1.09-5.08-1.73-1.59-.64-3.19-1.2-4.81-1.65-1.71-.48-3.5-.89-5.37-1.23-1.87-.34-3.55-.71-5.03-1.13-.27-.08-.44-.25-.51-.51-.07-.26-.07-.53,0-.8.08-.27.22-.51.42-.72.21-.21.45-.3.73-.27,1.43.26,2.59.41,3.48.44.89.03,1.63-.11,2.23-.42.6-.31,1.09-.87,1.49-1.65.39-.79.8-1.92,1.22-3.4l7.49-26.43Z"/>
    <path class="cls-2" d="M354.48,90.94c-6.02-4.19-9.55-9.17-10.59-14.96-1.04-5.79.8-12.07,5.52-18.86,2.03-2.91,4.37-5.27,7.04-7.05,2.66-1.79,5.46-2.97,8.4-3.55,2.93-.58,5.93-.53,8.99.15,3.06.68,6.02,2.01,8.9,4.01,2.8,1.95,5.04,4.2,6.73,6.77,1.68,2.57,2.77,5.3,3.26,8.2.49,2.9.35,5.89-.4,8.98-.75,3.09-2.17,6.13-4.25,9.12-2.32,3.34-4.87,5.93-7.66,7.77-2.79,1.84-5.66,3.03-8.62,3.56-2.96.53-5.92.43-8.89-.29-2.97-.73-5.77-2.01-8.42-3.85ZM356.39,88.69c1.88,1.31,3.88,1.96,6.02,1.96,2.13,0,4.26-.46,6.39-1.4,2.13-.94,4.19-2.29,6.19-4.06,2-1.77,3.8-3.8,5.4-6.1,1.55-2.22,2.87-4.55,3.96-6.98,1.09-2.43,1.76-4.8,2-7.1.24-2.31-.06-4.5-.88-6.59-.83-2.08-2.35-3.9-4.58-5.45-2.07-1.44-4.22-2.17-6.46-2.19-2.24-.02-4.41.47-6.53,1.47-2.12,1-4.15,2.41-6.09,4.21-1.94,1.81-3.67,3.81-5.19,5.99-1.6,2.3-2.96,4.66-4.07,7.07-1.11,2.41-1.77,4.76-1.98,7.03-.21,2.27.11,4.44.97,6.52.86,2.08,2.48,3.94,4.86,5.6Z"/>
  </g>
  <g>
    <path class="cls-1" d="M98.78,46.25c-4.02.68-5.25,4.03-5.64,5.67-1.08,4.58.86,6.78,4.71,8.17,3.41,1.23,7.15-1.05,7.49-5.28.57-7.01-3.1-9.14-6.56-8.56Z"/>
    <path class="cls-3" d="M101.58,33.96c1.3,7.84,15.63-18.71,35.38-14.06,21.31,5.02,18.32,24.01-15.16,33.43-8.64,2.43,27.94,18.58,13.76,30.03-.35.29-.85.34-1.27.52-2.78,1.22-16.59,6.08-31.63-9.86-11.62-12.31,16.71,33.48-6.79,30.74-29.96-3.5-3.47-44.76-15.23-37.74-18.6,11.1-48.51,11.47-44.52-7.88,5.2-25.2,58.42-10.37,45.99-16.39-43.7-21.15-8.49-37.27-8.49-37.27,0,0,21.47-10.45,27.95,28.48Z"/>
  </g>
  <text class="cls-4" transform="translate(43.53 166.4) rotate(46.36)"><tspan x="0" y="0">I</tspan></text>
  <text class="cls-4" transform="translate(45.89 168.89) rotate(39.78)"><tspan x="0" y="0">d</tspan></text>
  <text class="cls-4" transform="translate(49.66 171.97) rotate(32.33)"><tspan x="0" y="0">a</tspan></text>
  <text class="cls-4" transform="translate(53.29 174.2) rotate(26.99)"><tspan x="0" y="0"> </tspan></text>
  <text class="cls-4" transform="translate(55.52 175.47) rotate(19.45)"><tspan x="0" y="0">H</tspan></text>
  <text class="cls-4" transform="translate(62.39 177.74) rotate(10.23)"><tspan x="0" y="0">o</tspan></text>
  <text class="cls-4" transform="translate(66.93 178.5) rotate(4.63)"><tspan x="0" y="0">l</tspan></text>
  <text class="cls-4" transform="translate(70 178.88) rotate(-3.47)"><tspan x="0" y="0">m</tspan></text>
  <text class="cls-4" transform="translate(77.74 178.2) rotate(-11.29)"><tspan x="0" y="0"> </tspan></text>
  <text class="cls-4" transform="translate(80.21 177.77) rotate(-17.6)"><tspan x="0" y="0">T</tspan></text>
  <text class="cls-4" transform="translate(85.32 176.09) rotate(-25.42)"><tspan x="0" y="0">e</tspan></text>
  <text class="cls-4" transform="translate(89.21 174.19) rotate(-32.42)"><tspan x="0" y="0">r</tspan></text>
  <text class="cls-4" transform="translate(92.33 172.22) rotate(-40.52)"><tspan x="0" y="0">p</tspan></text>
</svg>