<?xml version="1.0" encoding="UTF-8"?>
<svg xmlns="http://www.w3.org/2000/svg" viewBox="0 0 405.33 198.05">
  <defs>
    <style>
      .cls-1 {
        stroke-width: 5px;
      }

      .cls-1, .cls-2, .cls-3 {
        stroke-miterlimit: 10;
      }

      .cls-1, .cls-3 {
        fill: none;
        stroke: #38479d;
      }

      .cls-2 {
        fill: #be1e2d;
        stroke: #be1e2d;
        stroke-width: 3px;
      }

      .cls-4 {
        fill: #39499d;
        font-family: PlantagenetCherokee, 'Plantagenet Cherokee';
        font-size: 8px;
      }

      .cls-3 {
        stroke-width: 7px;
      }
    </style>
  </defs>
  <g id="Layer_2" data-name="Layer 2">
    <g>
      <path class="cls-1" d="M299.39,134.84c-4.18.14-5.9,3.39-6.52,5.01-1.73,4.52-.05,7.03,3.69,8.96,3.31,1.71,7.42-.1,8.35-4.36,1.54-7.06-1.92-9.73-5.52-9.61Z"/>
      <path class="cls-3" d="M303.91,122.71c.26,8.16,18.47-16.94,37.95-9.51,21.03,8.01,15.4,26.95-19.98,31.99-9.13,1.3,25.93,22.73,9.94,32.46-.4.24-.91.23-1.36.36-3,.87-17.72,3.94-30.88-14.34-10.16-14.12,12.47,36.37-11.09,30.39-30.04-7.64,2.54-46.06-10.39-40.51-20.45,8.78-50.97,5.1-44.28-14.07,8.72-24.97,60.91-2.63,49.07-10.45-41.64-27.48-3.59-39.12-3.59-39.12,0,0,23.29-7.73,24.61,32.8Z"/>
    </g>
    <g>
      <path class="cls-1" d="M99.21,45.19c-4.06,1-5.08,4.53-5.35,6.24-.76,4.78,1.39,6.89,5.45,8.01,3.59,1,7.25-1.62,7.28-5.98.06-7.23-3.87-9.13-7.37-8.27Z"/>
      <path class="cls-3" d="M101.15,32.39c1.93,7.93,14.6-20.36,35.19-17.09,22.22,3.53,20.6,23.22-13,35.41-8.67,3.15,30.04,16.92,16.39,29.73-.34.32-.84.41-1.26.63-2.76,1.47-16.54,7.49-33.17-7.7-12.84-11.73,19.66,33.04-4.62,32.02-30.97-1.31-6.96-45.61-18.47-37.52-18.21,12.79-48.84,15.44-46.22-4.69,3.41-26.22,59.08-15.07,45.89-20.29-46.39-18.36-11.53-37.55-11.53-37.55,0,0,21.21-12.34,30.81,27.06Z"/>
    </g>
  </g>
  <g id="Layer_3" data-name="Layer 3">
    <g>
      <path class="cls-2" d="M19.07,147.29c-.55,1.54-.83,2.83-.84,3.87-.01,1.04.21,1.94.69,2.69.47.75,1.15,1.42,2.04,1.99.89.57,1.98,1.14,3.26,1.7.32.11.5.32.55.61.05.3.01.6-.1.92-.1.27-.26.49-.5.66-.24.17-.52.2-.83.09-2.44-.87-4.5-1.71-6.18-2.51-1.68-.8-3.33-1.49-4.96-2.07-1.72-.61-3.45-1.13-5.18-1.54-1.74-.42-3.4-.9-4.98-1.47-.27-.1-.43-.28-.49-.56-.06-.27-.05-.55.03-.83.07-.28.22-.52.45-.72.22-.2.5-.27.84-.2,1.31.32,2.42.51,3.31.57.89.06,1.66-.07,2.29-.41.63-.34,1.17-.88,1.62-1.64.45-.76.91-1.81,1.4-3.17l9.01-25.3c.35-.99.69-2,1-3.01.31-1.01.49-1.98.54-2.9.05-.92-.06-1.77-.32-2.52-.27-.76-.77-1.37-1.52-1.84-.47-.27-.95-.55-1.45-.86-.5-.3-.99-.57-1.48-.79-.27-.1-.43-.28-.49-.56-.06-.27-.03-.55.06-.82.1-.27.25-.49.47-.67.22-.18.46-.22.73-.12,1.54.55,2.89,1.11,4.06,1.68,1.17.57,2.57,1.15,4.2,1.73,2.73.92,5.01,1.64,6.83,2.17,1.83.52,3.55,1.07,5.18,1.66,1.81.64,3.51,1.47,5.12,2.47,1.6,1,2.91,2.21,3.91,3.61,1,1.4,1.65,2.99,1.93,4.78.28,1.78.04,3.76-.74,5.93-.9,2.53-2.15,4.46-3.74,5.78-1.59,1.32-3.44,2.19-5.55,2.61-2.11.42-4.43.45-6.95.08-2.52-.36-5.15-.98-7.9-1.86-.45-.16-.8-.21-1.06-.15-.25.06-.49.41-.72,1.04l-3.53,9.9ZM24.31,132.57c-.13.36-.11.62.06.79.17.16.53.34,1.07.53,2.21.79,4.13,1.28,5.74,1.47,1.61.19,3.01.05,4.2-.41,1.19-.47,2.2-1.27,3.03-2.4.83-1.13,1.59-2.64,2.27-4.54,1.27-3.57,1.52-6.33.73-8.26-.79-1.94-2.79-3.48-6-4.62-1.76-.63-3.01-.82-3.73-.57-.73.25-1.34,1.08-1.84,2.48l-5.53,15.53Z"/>
      <path class="cls-2" d="M73.03,173.29c-7.52-.44-13.29-2.92-17.31-7.43-4.02-4.51-5.77-11.01-5.28-19.49.21-3.64,1.01-6.96,2.39-9.96,1.38-3,3.2-5.53,5.46-7.61,2.26-2.08,4.91-3.64,7.96-4.69,3.04-1.05,6.36-1.47,9.95-1.25,3.5.21,6.67.98,9.53,2.33,2.85,1.35,5.27,3.16,7.25,5.44,1.98,2.28,3.47,4.98,4.47,8.09,1,3.11,1.38,6.54,1.16,10.27-.24,4.17-1.1,7.81-2.55,10.92-1.46,3.11-3.34,5.69-5.65,7.75-2.31,2.05-4.96,3.56-7.95,4.51-2.99.95-6.14,1.33-9.44,1.14ZM73.5,170.29c2.35.14,4.46-.36,6.33-1.5,1.87-1.14,3.49-2.69,4.85-4.66,1.36-1.96,2.45-4.26,3.25-6.88.8-2.62,1.29-5.37,1.46-8.25.16-2.78.07-5.52-.27-8.24s-1.03-5.15-2.06-7.3c-1.03-2.15-2.46-3.92-4.31-5.3-1.84-1.38-4.15-2.16-6.93-2.32-2.59-.15-4.87.36-6.83,1.55-1.97,1.18-3.61,2.78-4.93,4.79-1.32,2.01-2.35,4.33-3.08,6.96s-1.18,5.3-1.34,8.04c-.17,2.88-.09,5.67.23,8.38.32,2.71,1,5.12,2.03,7.22,1.03,2.1,2.48,3.84,4.35,5.2,1.87,1.36,4.29,2.13,7.26,2.3Z"/>
      <path class="cls-2" d="M107.22,134.52c-.33-1-.68-1.97-1.06-2.91-.38-.94-.82-1.78-1.31-2.53-.5-.75-1.08-1.34-1.75-1.78-.67-.44-1.46-.64-2.35-.6-.55.03-1.11.08-1.69.17-.58.09-1.12.19-1.64.31-.27.09-.52.04-.73-.14-.21-.18-.36-.41-.45-.69-.09-.27-.1-.55-.04-.82.06-.27.23-.45.5-.54,1.55-.5,2.96-.91,4.22-1.22,1.26-.31,2.71-.73,4.36-1.27,2.72-.94,4.98-1.73,6.76-2.39,1.78-.65,3.49-1.25,5.14-1.78,1.83-.59,3.7-.96,5.62-1.11s3.73.03,5.44.54c1.7.51,3.23,1.4,4.58,2.67,1.35,1.28,2.38,3.01,3.09,5.2.56,1.74.79,3.33.68,4.78-.11,1.45-.47,2.78-1.09,3.99-.62,1.21-1.46,2.3-2.53,3.28-1.07.98-2.28,1.87-3.64,2.66-.29.2-.4.41-.32.63.06.18.28.31.66.39,2.49.35,4.52.98,6.1,1.88,1.58.9,2.9,1.93,3.96,3.1,1.06,1.17,1.96,2.43,2.71,3.78.74,1.35,1.5,2.66,2.26,3.92.57.98,1.19,1.62,1.88,1.93.68.31,1.29.37,1.84.2.55-.18,1-.58,1.35-1.2.35-.62.52-1.43.5-2.43-.03-.39.08-.69.31-.9.24-.2.49-.31.77-.32.27-.01.55.05.82.19s.42.33.45.57c.23,1.19.23,2.27,0,3.26-.24.98-.62,1.86-1.16,2.61-.54.75-1.21,1.4-2.02,1.94-.81.54-1.65.95-2.51,1.23-1.46.48-2.89.59-4.28.33-1.4-.25-2.49-.91-3.29-1.96-.53-.69-1.06-1.44-1.61-2.28-.55-.83-1.09-1.68-1.62-2.54-.53-.86-1.06-1.7-1.58-2.52-.52-.82-.98-1.54-1.38-2.16-1.77-2.65-3.52-4.41-5.23-5.26-1.72-.85-3.74-.9-6.07-.15-.78.25-1.39.63-1.83,1.13-.44.5-.51,1.23-.2,2.18l3.01,9.24c.5,1.55,1.07,2.75,1.69,3.58.62.83,1.34,1.41,2.15,1.72.81.32,1.72.44,2.73.36,1.01-.08,2.15-.27,3.41-.58.27-.09.53-.03.77.17.24.2.41.46.52.78.09.27.09.55,0,.83-.09.28-.29.47-.61.58-2.28.74-4.32,1.3-6.11,1.69-1.79.38-3.51.84-5.16,1.38-1.74.56-3.42,1.21-5.05,1.94-1.63.73-3.24,1.36-4.84,1.88-.27.09-.52.04-.73-.14-.21-.18-.37-.41-.48-.68-.11-.27-.14-.55-.08-.84.06-.29.23-.52.54-.67,1.23-.55,2.22-1.08,2.97-1.57.75-.5,1.27-1.07,1.56-1.72.29-.65.39-1.41.28-2.29-.11-.87-.38-2-.83-3.36l-8.35-25.67ZM117.34,140.24c.39,1.19.94,1.78,1.67,1.77.73,0,1.75-.23,3.08-.66,1.78-.58,3.22-1.24,4.32-1.97,1.1-.74,1.88-1.62,2.35-2.66s.65-2.23.54-3.58c-.11-1.35-.46-2.94-1.06-4.77-.56-1.73-1.2-3.15-1.92-4.26-.71-1.1-1.55-1.92-2.5-2.44-.95-.52-2.05-.76-3.3-.71-1.25.05-2.69.35-4.33.88-1.78.58-2.88,1.19-3.3,1.83-.42.64-.4,1.67.06,3.09l4.39,13.49Z"/>
      <path class="cls-2" d="M181.61,129.57c.94,1.28,1.73,2.23,2.37,2.86.64.63,1.31.99,2,1.08.69.09,1.47-.05,2.33-.42.86-.37,1.95-.95,3.28-1.74.26-.13.54-.14.83-.03.29.11.52.29.69.52s.26.5.27.79c0,.29-.13.54-.4.74-1.55,1.14-3.08,2.15-4.61,3.03-1.53.88-2.98,1.84-4.38,2.86-1.47,1.08-2.93,2.27-4.38,3.58s-2.82,2.43-4.09,3.37c-.23.17-.48.2-.74.09-.26-.11-.47-.28-.64-.51-.17-.23-.28-.5-.32-.8-.04-.3.04-.55.24-.76,1.11-1,1.96-1.85,2.55-2.55.59-.7.94-1.39,1.06-2.08s-.01-1.43-.4-2.25c-.39-.81-1.05-1.86-1.99-3.14l-18.94-25.76c-1.05-1.43-2.07-2.07-3.06-1.91-.99.16-2.33.86-4.03,2.11-1.43,1.05-2.53,2.03-3.3,2.92-.77.9-1.25,1.84-1.44,2.84-.19,1-.11,2.12.23,3.36.34,1.24.93,2.74,1.76,4.52.13.26.12.51-.04.74-.16.23-.35.42-.57.56-.23.14-.47.21-.73.22-.26.01-.45-.06-.56-.21-.9-1.54-1.88-3.07-2.96-4.57-1.08-1.5-2.25-2.92-3.52-4.25-.31-.42-.26-.91.17-1.47.43-.55.97-1.07,1.63-1.55l31.03-22.82c.73-.54,1.39-.92,1.98-1.14.58-.22,1.03-.12,1.34.31.26.52.62,1.14,1.06,1.86.44.72.96,1.49,1.56,2.3.6.81,1.24,1.62,1.92,2.43.68.81,1.35,1.57,1.99,2.29.11.15.12.37.03.65-.09.28-.25.51-.47.7-.22.19-.46.33-.73.4-.27.08-.51.02-.72-.19-1.37-1.38-2.61-2.42-3.72-3.12-1.11-.7-2.19-1.1-3.24-1.19-1.05-.09-2.12.1-3.2.57-1.08.47-2.27,1.17-3.54,2.11-1.74,1.28-2.86,2.39-3.36,3.32-.5.94-.23,2.12.82,3.55l18.94,25.76Z"/>
      <path class="cls-2" d="M204.5,56.04c.29-.26.59-.47.92-.64.33-.17.69.03,1.07.59.83,1.13,1.87,2.36,3.12,3.68,1.26,1.32,2.44,2.52,3.54,3.6.13.14.15.33.07.56-.08.23-.22.46-.42.67-.2.21-.44.36-.71.45-.28.09-.51.06-.71-.09-1.5-1.16-2.73-2.03-3.69-2.58-.96-.56-1.84-.84-2.66-.85-.82,0-1.65.28-2.52.87-.86.58-1.93,1.42-3.21,2.51l-3.21,2.89c-.93.84-1.65,1.52-2.17,2.06-.52.54-.84,1.06-.95,1.58-.11.52,0,1.08.35,1.67.34.6.92,1.34,1.72,2.23l8.44,9.35c.45.5.82.73,1.11.69s.52-.13.7-.3c1.64-1.48,2.87-2.72,3.68-3.71.82-.99,1.29-1.9,1.44-2.71.14-.81.02-1.59-.36-2.34-.39-.75-.96-1.65-1.72-2.71-.16-.25-.2-.5-.11-.77.08-.27.23-.5.44-.69.21-.19.46-.32.73-.37.27-.05.51.03.7.24.51.57.96,1.09,1.32,1.57.37.48.73.96,1.1,1.43.37.48.75.97,1.15,1.49.4.51.89,1.09,1.47,1.73.96,1.07,1.9,1.99,2.79,2.77.9.78,1.91,1.79,3.03,3.04.16.18.19.39.09.64-.1.25-.26.46-.49.64-.23.18-.47.3-.73.37-.26.07-.5.02-.73-.17-1.04-.94-1.93-1.65-2.67-2.15-.74-.5-1.5-.7-2.29-.6-.79.1-1.71.51-2.77,1.24-1.06.73-2.4,1.83-4.04,3.31-.18.16-.3.38-.37.67-.07.29.08.62.43,1.02l8.11,8.98c1.09,1.21,2.07,2.09,2.92,2.65.85.55,1.71.82,2.56.79.85-.02,1.74-.31,2.67-.86.93-.55,2.03-1.3,3.3-2.25.25-.22.52-.29.8-.19.28.1.54.27.76.52.19.21.31.47.34.76.04.29-.07.55-.32.77-1.92,1.74-3.64,3.15-5.14,4.25-1.5,1.1-2.89,2.22-4.17,3.38-1.35,1.22-2.62,2.5-3.82,3.83-1.19,1.33-2.41,2.56-3.65,3.69-.21.19-.46.25-.72.17-.27-.08-.51-.22-.72-.42-.21-.2-.35-.44-.42-.74-.07-.29,0-.57.22-.83.9-1.01,1.59-1.89,2.07-2.65.48-.76.72-1.49.72-2.21,0-.71-.22-1.45-.68-2.2-.46-.75-1.16-1.67-2.13-2.73l-18.14-20.09c-.71-.78-1.43-1.53-2.15-2.23s-1.47-1.29-2.23-1.77c-.76-.48-1.53-.78-2.32-.91-.79-.12-1.59.01-2.39.41-.49.25-.98.53-1.47.84-.49.32-.95.63-1.37.95-.21.19-.45.25-.72.17-.27-.08-.5-.23-.69-.44-.19-.21-.32-.46-.37-.73-.05-.27.03-.51.24-.7,1.21-1.09,2.33-2.04,3.36-2.84,1.03-.8,2.18-1.78,3.46-2.93l19.19-17.32Z"/>
      <path class="cls-2" d="M254.58,82.61c-7.06,2.64-13.34,2.7-18.83.19-5.5-2.51-9.73-7.74-12.7-15.7-1.28-3.42-1.89-6.77-1.84-10.07.05-3.3.69-6.35,1.92-9.17,1.23-2.81,3.02-5.32,5.38-7.5,2.36-2.19,5.23-3.91,8.6-5.17,3.28-1.23,6.5-1.8,9.66-1.72,3.15.08,6.1.76,8.83,2.04,2.73,1.28,5.18,3.15,7.35,5.59,2.17,2.45,3.91,5.42,5.22,8.93,1.46,3.91,2.15,7.59,2.08,11.02-.08,3.44-.75,6.56-2.04,9.37-1.28,2.81-3.1,5.26-5.45,7.34s-5.07,3.7-8.18,4.86ZM253.79,79.67c2.2-.82,3.93-2.13,5.18-3.93,1.25-1.8,2.1-3.87,2.56-6.22.46-2.35.52-4.88.2-7.61-.33-2.72-.99-5.43-2-8.13-.97-2.61-2.17-5.08-3.58-7.42-1.41-2.34-3.02-4.29-4.83-5.84-1.81-1.55-3.84-2.59-6.08-3.11-2.24-.52-4.67-.29-7.28.68-2.43.91-4.3,2.3-5.63,4.18-1.32,1.88-2.18,4-2.58,6.38-.39,2.38-.39,4.91,0,7.61.39,2.7,1.07,5.33,2.02,7.89,1.01,2.7,2.21,5.22,3.6,7.57,1.39,2.35,2.98,4.28,4.77,5.79,1.79,1.51,3.82,2.51,6.08,3,2.26.49,4.78.21,7.57-.83Z"/>
      <path class="cls-2" d="M286.06,34.9c.05-1.49,0-2.76-.13-3.82-.14-1.06-.43-1.93-.89-2.62-.46-.69-1.13-1.22-2-1.61-.88-.39-2.06-.65-3.54-.79-.29,0-.5-.15-.64-.42-.14-.27-.2-.55-.19-.83s.09-.55.24-.79c.15-.23.37-.35.66-.34,1.54.05,3.28.17,5.25.38,1.96.2,3.81.33,5.53.39,1.01.03,1.96.04,2.85.02.89-.02,1.75-.04,2.6-.06.84-.02,1.69-.04,2.56-.06.87-.02,1.8-.02,2.81.02.29,0,.49.14.6.38.11.24.15.51.12.8s-.12.56-.28.82c-.15.26-.35.39-.59.38-1.49.05-2.7.22-3.62.5-.92.28-1.63.74-2.13,1.37-.5.63-.84,1.48-1.01,2.53-.18,1.05-.29,2.39-.34,4.02l-.78,25.04c-.05,1.54-.02,2.82.1,3.86.11,1.04.35,1.91.71,2.61.36.71.87,1.26,1.53,1.67.66.41,1.49.77,2.49,1.09.67.16,1.42.3,2.26.39.84.1,1.71.16,2.62.19,1.15.04,2.23.02,3.24-.04,1.01-.06,1.78-.18,2.32-.36.97-.31,1.81-.64,2.52-1,.71-.36,1.31-.85,1.81-1.46.5-.61.92-1.38,1.26-2.3.34-.93.63-2.11.87-3.54.06-.29.23-.47.52-.56.29-.09.6-.12.94-.11.34.01.63.09.89.24.26.15.36.35.31.59-.3,2.01-.58,3.88-.82,5.63-.25,1.75-.37,3.53-.38,5.36,0,.14-.11.34-.31.6-.2.26-.66.38-1.38.35l-26.12-.81c-1.87-.06-3.67-.05-5.4.01-1.73.07-3.44.12-5.12.17-.34-.01-.58-.14-.74-.38-.16-.24-.24-.51-.23-.8,0-.29.1-.56.28-.82.18-.26.43-.41.77-.44,1.49-.15,2.7-.31,3.62-.5.92-.19,1.62-.5,2.12-.94.49-.44.84-1.1,1.03-1.99.19-.88.32-2.12.37-3.7l.87-28.21v-.07Z"/>
      <path class="cls-2" d="M340.07,40.75c.41-1.43.67-2.68.8-3.74.12-1.06.05-1.98-.23-2.76-.28-.78-.8-1.46-1.55-2.05-.76-.59-1.84-1.13-3.24-1.63-.28-.08-.45-.26-.52-.56-.07-.29-.06-.58.02-.86s.22-.51.42-.7c.2-.19.44-.25.72-.17,1.48.42,3.14.97,5,1.64,1.85.67,3.61,1.25,5.28,1.72.97.28,1.89.51,2.76.71.87.2,1.71.39,2.53.57.82.18,1.65.37,2.5.56.84.19,1.75.42,2.72.7.28.08.44.25.49.51.05.26.02.53-.08.8-.1.27-.26.51-.47.73-.21.22-.43.29-.66.22-1.46-.31-2.67-.44-3.63-.39-.96.05-1.76.32-2.4.82-.64.49-1.17,1.23-1.6,2.2-.43.98-.86,2.25-1.31,3.82l-7.69,27.16c-.43,1.52-.68,2.74-.73,3.65-.06.91.09,1.66.45,2.26.35.6.94,1.13,1.76,1.58.82.46,1.9.95,3.25,1.48.26.12.44.34.53.64.09.3.1.59.02.87-.08.28-.23.51-.46.69-.23.18-.5.23-.83.14-1.85-.52-3.59-1.12-5.22-1.78-1.63-.66-3.28-1.23-4.94-1.7-1.76-.5-3.59-.92-5.52-1.26-1.92-.35-3.65-.73-5.17-1.17-.28-.08-.45-.25-.53-.52-.07-.27-.07-.54,0-.82.08-.28.22-.52.43-.74.21-.21.46-.31.75-.27,1.47.27,2.66.42,3.58.45.91.03,1.68-.11,2.29-.44.62-.32,1.12-.89,1.53-1.7.4-.81.82-1.98,1.25-3.5l7.69-27.16Z"/>
      <path class="cls-2" d="M364.23,93.36c-6.19-4.3-9.82-9.43-10.88-15.37-1.07-5.95.82-12.41,5.67-19.38,2.08-2.99,4.49-5.41,7.23-7.25,2.74-1.84,5.62-3.05,8.63-3.65,3.01-.59,6.09-.54,9.24.15,3.14.69,6.19,2.07,9.15,4.12,2.88,2,5.18,4.32,6.91,6.96,1.73,2.64,2.85,5.44,3.35,8.42.5,2.98.36,6.06-.41,9.23-.77,3.17-2.23,6.3-4.37,9.37-2.38,3.43-5.01,6.09-7.88,7.98-2.87,1.89-5.82,3.12-8.86,3.66-3.04.55-6.08.45-9.13-.3-3.05-.75-5.93-2.06-8.65-3.95ZM366.2,91.04c1.93,1.34,3.99,2.02,6.18,2.02,2.19,0,4.38-.48,6.57-1.44,2.19-.96,4.31-2.35,6.36-4.17s3.9-3.91,5.55-6.27c1.59-2.29,2.94-4.68,4.07-7.17,1.12-2.49,1.8-4.93,2.05-7.3.25-2.37-.06-4.63-.91-6.77-.85-2.14-2.42-4.01-4.7-5.6-2.13-1.48-4.34-2.23-6.64-2.25-2.3-.02-4.53.49-6.71,1.52-2.18,1.03-4.26,2.47-6.26,4.33-1.99,1.86-3.77,3.91-5.33,6.16-1.64,2.36-3.04,4.79-4.18,7.27-1.14,2.48-1.82,4.89-2.04,7.22-.22,2.33.11,4.57,1,6.7.88,2.14,2.55,4.05,4.99,5.75Z"/>
    </g>
    <text class="cls-4" transform="translate(44.6 168.57) rotate(46.53)"><tspan x="0" y="0">I</tspan></text>
    <text class="cls-4" transform="translate(46.87 170.98) rotate(41.89)"><tspan x="0" y="0">d</tspan></text>
    <text class="cls-4" transform="translate(50.41 174.13) rotate(36.23)"><tspan x="0" y="0">a</tspan></text>
    <text class="cls-4" transform="translate(53.83 176.58) rotate(31.76)"><tspan x="0" y="0"> </tspan></text>
    <text class="cls-4" transform="translate(55.94 178.01) rotate(24.81)"><tspan x="0" y="0">H</tspan></text>
    <text class="cls-4" transform="translate(62.56 180.92) rotate(15.3)"><tspan x="0" y="0">o</tspan></text>
    <text class="cls-4" transform="translate(67.06 182.08) rotate(8.98)"><tspan x="0" y="0">l</tspan></text>
    <text class="cls-4" transform="translate(70.18 182.73) rotate(-.69)"><tspan x="0" y="0">m</tspan></text>
    <text class="cls-4" transform="translate(78.08 182.37) rotate(-10.28)"><tspan x="0" y="0"> </tspan></text>
    <text class="cls-4" transform="translate(80.61 181.98) rotate(-17.79)"><tspan x="0" y="0">T</tspan></text>
    <text class="cls-4" transform="translate(85.79 180.24) rotate(-26.68)"><tspan x="0" y="0">e</tspan></text>
    <text class="cls-4" transform="translate(89.66 178.24) rotate(-33.98)"><tspan x="0" y="0">r</tspan></text>
    <text class="cls-4" transform="translate(92.7 176.2) rotate(-41.61)"><tspan x="0" y="0">p</tspan></text>
  </g>
</svg>