<?xml version="1.0" encoding="UTF-8"?>
<svg id="Layer_3" data-name="Layer 3" xmlns="http://www.w3.org/2000/svg" viewBox="0 0 344.31 395.99">
  <defs>
    <style>
      .cls-1 {
        stroke-width: 5px;
      }

      .cls-1, .cls-2, .cls-3 {
        stroke-miterlimit: 10;
      }

      .cls-1, .cls-3 {
        fill: none;
        stroke: #38479d;
      }

      .cls-2 {
        fill: #be1e2d;
        stroke: #be1e2d;
        stroke-width: 3px;
      }

      .cls-3 {
        stroke-width: 7px;
      }
    </style>
  </defs>
  <g>
    <path class="cls-1" d="M292.75,329.34c-2.32-4.92-7.09-5.3-9.33-5.21-6.29.26-8.42,3.55-8.81,9.01-.35,4.83,3.94,8.82,9.5,7.73,9.23-1.8,10.64-7.29,8.64-11.53Z"/>
    <path class="cls-3" d="M309.57,328.5c-9.61,4.51,29.73,13.36,30.87,40.45,1.24,29.24-24.28,32.26-48.49-7.43-6.25-10.24-13.82,42.67-33.67,28.56-.5-.35-.74-.97-1.13-1.44-2.58-3.14-13.82-19.15,1.26-44.27,11.64-19.4-37.05,33.6-42,2.37-6.32-39.81,56.34-20.64,43.06-33.23-21-19.92-32.29-58.28-5.95-60.13,34.31-2.42,34.46,71.42,37.71,53.26,11.43-63.87,44.89-24.39,44.89-24.39,0,0,21.2,23.86-26.54,46.26Z"/>
  </g>
  <path class="cls-2" d="M180.28,264.57c.24,5.87,1.04,10.56,2.4,14.05,1.35,3.49,3.33,6.18,5.92,8.06,2.58,1.89,5.75,3.18,9.51,3.89,3.75.71,8.13,1.13,13.16,1.27,1.21-.05,2.09.39,2.65,1.32.56.93.86,2,.91,3.21.04,1.04-.22,2-.79,2.89-.57.89-1.46,1.36-2.67,1.41-9.33.39-17.34.37-24.02-.04-6.68-.41-13.13-.49-19.35-.23-6.57.27-13.03.89-19.39,1.85-6.37.95-12.57,1.56-18.62,1.81-1.04.04-1.83-.36-2.39-1.2-.55-.84-.9-1.78-1.03-2.82-.13-1.03.05-2.03.52-3.01.48-.97,1.32-1.57,2.52-1.79,4.81-.72,8.76-1.57,11.83-2.57,3.08-.99,5.43-2.47,7.08-4.45,1.65-1.97,2.71-4.52,3.19-7.66.47-3.14.6-7.3.39-12.48l-4.02-96.67c-.16-3.8-.41-7.6-.73-11.39-.33-3.79-1.04-7.27-2.12-10.43-1.08-3.15-2.58-5.82-4.49-7.99-1.91-2.17-4.43-3.53-7.57-4.1-1.92-.27-3.92-.57-6.01-.92-2.09-.34-4.09-.56-6-.66-1.04.04-1.83-.36-2.39-1.2-.56-.84-.85-1.78-.9-2.82-.04-1.04.18-1.99.66-2.88.48-.88,1.24-1.35,2.28-1.39,5.87-.25,11.15-.2,15.84.12,4.69.33,10.14.36,16.36.1,10.36-.6,18.94-1.26,25.75-1.98,6.81-.71,13.32-1.2,19.54-1.46,6.91-.29,13.72.16,20.44,1.36,6.71,1.19,12.69,3.46,17.93,6.78,5.24,3.33,9.54,7.78,12.89,13.35,3.35,5.57,5.19,12.5,5.54,20.8.4,9.68-1.17,17.79-4.7,24.34-3.54,6.55-8.55,11.95-15.03,16.2-6.49,4.25-14.19,7.47-23.09,9.66-8.91,2.19-18.54,3.67-28.89,4.45-1.73.07-2.97.38-3.73.94-.75.55-1.08,2.04-.98,4.46l1.57,37.84ZM177.94,208.33c.06,1.39.48,2.23,1.27,2.54.79.32,2.23.43,4.3.34,8.46-.35,15.52-1.3,21.17-2.83,5.65-1.53,10.13-3.88,13.47-7.05,3.33-3.17,5.63-7.2,6.89-12.1,1.26-4.9,1.75-10.98,1.45-18.23-.57-13.65-3.47-23.18-8.72-28.59-5.25-5.4-14-7.86-26.27-7.34-6.74.28-11.15,1.33-13.24,3.15-2.09,1.82-3.02,5.41-2.8,10.76l2.47,59.35Z"/>
  <g>
    <path class="cls-1" d="M75.93,90.69c1.32-5.28-2.12-8.59-3.91-9.95-5.03-3.79-8.76-2.59-12.52,1.38-3.33,3.52-2.54,9.32,2.45,12.01,8.28,4.46,12.85,1.11,13.99-3.44Z"/>
    <path class="cls-3" d="M89.46,100.71c-10.29-2.61,14.52,29.18-1.77,50.85-17.59,23.4-39.23,9.55-32.79-36.49,1.66-11.88-37.74,24.23-44.15.74-.16-.59.04-1.22.04-1.83,0-4.07,1.45-23.57,29.04-33.43,21.3-7.62-49.95,2.49-33.98-24.8,20.36-34.79,56.65,19.76,54.37,1.6-3.61-28.72,11.98-65.54,33.53-50.27,28.06,19.88-18.64,77.08-4.61,65.09,49.34-42.15,50.18,9.6,50.18,9.6,0,0,1.27,31.89-49.86,18.94Z"/>
  </g>
</svg>