<?xml version="1.0" encoding="UTF-8"?>
<svg id="Layer_3" data-name="Layer 3" xmlns="http://www.w3.org/2000/svg" viewBox="0 0 43.81 38.14">
  <defs>
    <style>
      .cls-1 {
        stroke-width: 2px;
      }

      .cls-1, .cls-2 {
        fill: none;
        stroke: #39499d;
        stroke-miterlimit: 10;
      }
    </style>
  </defs>
  <path class="cls-2" d="M19.88,21.27c1.43.03,2.08-1.05,2.32-1.59.68-1.51.15-2.4-1.09-3.13-1.1-.65-2.54-.11-2.94,1.33-.66,2.38.47,3.36,1.7,3.39Z"/>
  <path class="cls-1" d="M18.1,25.33c.07-2.79-6.64,5.43-13.15,2.52-7.03-3.15-4.74-9.51,7.45-10.55,3.15-.27-8.42-8.27-2.77-11.29.14-.08.32-.06.47-.1,1.04-.24,6.13-1.01,10.28,5.5,3.2,5.02-3.56-12.67,4.38-10.17,10.12,3.19-1.76,15.69,2.77,14.05,7.16-2.61,17.52-.76,14.86,5.67-3.46,8.36-20.87-.28-16.97,2.62,13.7,10.2.47,13.44.47,13.44,0,0-8.11,2.19-7.78-11.69Z"/>
</svg>