<?xml version="1.0" encoding="UTF-8"?>
<svg id="Layer_3" data-name="Layer 3" xmlns="http://www.w3.org/2000/svg" viewBox="0 0 32.34 28.23">
  <defs>
    <style>
      .cls-1 {
        stroke-width: 2px;
      }

      .cls-1, .cls-2 {
        fill: none;
        stroke: #39499d;
        stroke-miterlimit: 10;
      }
    </style>
  </defs>
  <path class="cls-2" d="M14.7,15.71c1.04.02,1.51-.76,1.69-1.15.49-1.1.11-1.74-.79-2.27-.8-.47-1.84-.08-2.13.96-.48,1.73.34,2.44,1.23,2.46Z"/>
  <path class="cls-1" d="M13.41,18.66c.05-2.03-4.82,3.94-9.55,1.83-5.1-2.28-3.44-6.9,5.41-7.65,2.28-.19-6.11-6-2.01-8.19.1-.05.23-.04.34-.07.76-.17,4.45-.73,7.46,3.99,2.32,3.64-2.58-9.2,3.18-7.38,7.34,2.32-1.28,11.39,2.01,10.19,5.2-1.89,12.72-.55,10.79,4.11-2.51,6.07-15.15-.2-12.32,1.9,9.94,7.4.34,9.75.34,9.75,0,0-5.89,1.59-5.64-8.48Z"/>
</svg>